<svg width="85" height="85" viewBox="0 0 85 85" fill="none" xmlns="http://www.w3.org/2000/svg">
<g clip-path="url(#clip0_3480_20231)">
<path d="M69.9994 -0.000732422H14.9995C6.71524 -0.000732422 -0.000488281 6.71498 -0.000488281 14.9993V69.9992C-0.000488281 78.2835 6.71522 84.9992 14.9995 84.9992H69.9994C78.2837 84.9992 84.9994 78.2835 84.9994 69.9992V14.9993C84.9994 6.715 78.2837 -0.000732422 69.9994 -0.000732422Z" fill="black"/>
<path fill-rule="evenodd" clip-rule="evenodd" d="M47.0902 27.9025L21.8555 29.7057C21.6549 29.734 21.452 29.7487 21.2446 29.7487C18.8986 29.7487 16.9946 27.8447 16.9946 25.4987C16.9946 23.163 18.8839 21.2635 21.2174 21.2488H21.2446H21.2718C21.4702 21.251 21.664 21.2646 21.8555 21.293L47.0902 23.095C48.1283 19.5726 51.3878 16.9988 55.2445 16.9988C59.9353 16.9988 67.9944 20.8079 67.9944 25.4987C67.9944 30.1907 59.9353 33.9987 55.2445 33.9987C51.3878 33.9987 48.1283 31.4249 47.0902 27.9025Z" fill="#858585"/>
<path fill-rule="evenodd" clip-rule="evenodd" d="M37.9261 44.9048C36.9684 48.4261 33.9628 50.9987 30.4076 50.9987H18.6946C17.7562 50.9987 16.9946 50.2371 16.9946 49.2987C16.9946 48.3603 17.7562 47.5987 18.6946 47.5987H28.0446C28.983 47.5987 29.7446 46.8371 29.7446 45.8987C29.7446 44.9603 28.983 44.1987 28.0446 44.1987H18.6946C17.7562 44.1987 16.9946 43.4371 16.9946 42.4987C16.9946 41.5604 17.7562 40.7988 18.6946 40.7988H28.0446C28.983 40.7988 29.7446 40.0372 29.7446 39.0988C29.7446 38.1604 28.983 37.3988 28.0446 37.3988H18.9848H18.6946C17.7562 37.3988 16.9946 36.6372 16.9946 35.6988C16.9946 34.7604 17.7562 33.9988 18.6946 33.9988H30.4076C33.9628 33.9988 36.9684 36.5726 37.9261 40.0938L63.1336 38.293C63.3342 38.2635 63.5371 38.2488 63.7445 38.2488C66.0905 38.2488 67.9944 40.1539 67.9944 42.4987C67.9944 44.8357 66.1052 46.734 63.7717 46.7487H63.7445H63.7172C63.5189 46.7476 63.3251 46.7329 63.1336 46.7057L37.9261 44.9048Z" fill="#858585"/>
<path fill-rule="evenodd" clip-rule="evenodd" d="M67.7933 60.3996C65.9054 64.6682 51.1419 67.9993 44.9999 67.9993C40.9464 67.9993 39.323 64.7612 38.6748 62.2832L21.2472 63.7046C21.0728 63.7337 20.8941 63.7482 20.7124 63.7482C18.6602 63.7482 16.9946 61.8442 16.9946 59.4985C16.9946 57.1629 18.6471 55.2633 20.6891 55.2488H20.7124H20.7371C20.9101 55.2502 21.0801 55.2648 21.2472 55.2924L46.7439 57.3736H65.869C67.0419 57.3736 67.9939 58.3256 67.9939 59.4985C67.9939 59.8211 67.9227 60.1264 67.7933 60.3996Z" fill="#787878"/>
<path fill-rule="evenodd" clip-rule="evenodd" d="M55.2445 46.1424L37.9261 44.9048C36.9684 48.4261 33.9628 50.9987 30.4076 50.9987H18.6946C17.7562 50.9987 16.9946 50.2371 16.9946 49.2987C16.9946 48.3603 17.7562 47.5987 18.6946 47.5987H28.0446C28.983 47.5987 29.7446 46.8371 29.7446 45.8987C29.7446 44.9603 28.983 44.1987 28.0446 44.1987H18.6946C17.7562 44.1987 16.9946 43.4371 16.9946 42.4987C16.9946 41.5604 17.7562 40.7988 18.6946 40.7988H28.0446C28.983 40.7988 29.7446 40.0372 29.7446 39.0988C29.7446 38.1604 28.983 37.3988 28.0446 37.3988H18.9848H18.6946C17.7562 37.3988 16.9946 36.6372 16.9946 35.6988C16.9946 34.7604 17.7562 33.9988 18.6946 33.9988H30.4076C33.9628 33.9988 36.9684 36.5726 37.9261 40.0938L55.2445 38.8562V46.1424Z" fill="#FFF735"/>
<path fill-rule="evenodd" clip-rule="evenodd" d="M38.2445 28.535L21.8555 29.7057C21.6549 29.734 21.452 29.7487 21.2446 29.7487C18.8986 29.7487 16.9946 27.8448 16.9946 25.4988C16.9946 23.163 18.8839 21.2635 21.2174 21.2488H21.2446H21.2718C21.4702 21.251 21.664 21.2646 21.8555 21.293L38.2445 22.4637V28.535Z" fill="#C4FF46"/>
<path fill-rule="evenodd" clip-rule="evenodd" d="M46.7445 67.9282C46.1099 67.9747 45.5239 67.9985 45.0003 67.9985C40.9475 67.9985 39.3235 64.7617 38.6752 62.282L21.2469 63.7055C21.0723 63.7338 20.8944 63.7485 20.7131 63.7485C18.6606 63.7485 16.9946 61.8445 16.9946 59.4985C16.9946 57.1627 18.6482 55.2633 20.6893 55.2485H20.7131H20.738C20.9103 55.2508 21.0814 55.2655 21.2469 55.2927L46.7445 57.3735V67.9282Z" fill="#FF5935"/>
</g>
<defs>
<clipPath id="clip0_3480_20231">
<rect width="85" height="85" fill="white"/>
</clipPath>
</defs>
</svg>
