<svg width="36" height="36" viewBox="0 0 36 36" fill="none" xmlns="http://www.w3.org/2000/svg">
<g clip-path="url(#clip0_3480_20248)">
<path fill-rule="evenodd" clip-rule="evenodd" d="M34.3021 5.85377C34.3021 3.53129 32.4162 1.64575 30.0938 1.64575H5.85385C3.53143 1.64575 1.64551 3.53129 1.64551 5.85377V30.0941C1.64551 32.4165 3.53143 34.3019 5.85385 34.3019H30.0938C32.4162 34.3019 34.3021 32.4165 34.3021 30.0941V5.85377Z" fill="black" stroke="black" stroke-width="58.3356" stroke-miterlimit="1.5" stroke-linecap="round" stroke-linejoin="round"/>
<path fill-rule="evenodd" clip-rule="evenodd" d="M10.976 4.66504C7.49304 4.66504 4.66504 7.49306 4.66504 10.9764C4.66504 14.4594 7.49304 17.287 10.976 17.287C14.4589 17.287 17.2869 14.4594 17.2869 10.9764C17.2869 7.49306 14.4589 4.66504 10.976 4.66504ZM10.976 7.95665C12.6423 7.95665 13.9953 9.30965 13.9953 10.9764C13.9953 12.6428 12.6423 13.9958 10.976 13.9958C9.30963 13.9958 7.95663 12.6428 7.95663 10.9764C7.95663 9.30965 9.30963 7.95665 10.976 7.95665Z" fill="white"/>
<path fill-rule="evenodd" clip-rule="evenodd" d="M12.6219 29.637V24.9716C12.6219 24.0632 11.8844 23.3257 10.976 23.3257C10.0681 23.3257 9.33057 24.0632 9.33057 24.9716V29.637C9.33057 30.5454 10.0681 31.2824 10.976 31.2824C11.8844 31.2824 12.6219 30.5454 12.6219 29.637Z" fill="white"/>
<path fill-rule="evenodd" clip-rule="evenodd" d="M13.9953 20.3067C13.9953 21.973 12.6423 23.326 10.976 23.326C9.30963 23.326 7.95663 21.973 7.95663 20.3067C7.95663 19.3982 7.21914 18.6606 6.31063 18.6606C5.40255 18.6606 4.66504 19.3982 4.66504 20.3067C4.66504 23.7896 7.49304 26.6172 10.976 26.6172C14.4589 26.6172 17.2869 23.7896 17.2869 20.3067C17.2869 19.3982 16.5494 18.6606 15.6409 18.6606C14.7329 18.6606 13.9953 19.3982 13.9953 20.3067Z" fill="white"/>
<path fill-rule="evenodd" clip-rule="evenodd" d="M21.952 15.6412V10.2841C24.6994 13.0316 28.4726 16.805 28.4726 16.805C28.9432 17.2756 29.6513 17.4164 30.2664 17.1617C30.8814 16.907 31.2821 16.3068 31.2821 15.6412V6.31084C31.2821 5.40255 30.5446 4.66511 29.6367 4.66511C28.7282 4.66511 27.9907 5.40255 27.9907 6.31084V11.668C25.2433 8.9205 21.4701 5.14711 21.4701 5.14711C20.9989 4.67645 20.2914 4.53561 19.6763 4.79038C19.0613 5.04509 18.6606 5.64518 18.6606 6.31084V15.6412C18.6606 16.5495 19.3976 17.287 20.306 17.287C21.2145 17.287 21.952 16.5495 21.952 15.6412Z" fill="white"/>
<path fill-rule="evenodd" clip-rule="evenodd" d="M21.4703 30.8005L30.8004 21.4703C31.4425 20.828 31.4425 19.7851 30.8004 19.1429C30.1582 18.5006 29.1149 18.5006 28.4728 19.1429L19.1427 28.473C18.5 29.1157 18.5 30.1584 19.1427 30.8005C19.7848 31.4432 20.8276 31.4432 21.4703 30.8005Z" fill="white"/>
<path fill-rule="evenodd" clip-rule="evenodd" d="M30.8004 28.473L21.4703 19.1429C20.8276 18.5006 19.7848 18.5006 19.1427 19.1429C18.5 19.7851 18.5 20.828 19.1427 21.4703L28.4728 30.8005C29.1149 31.4432 30.1582 31.4432 30.8004 30.8005C31.4425 30.1584 31.4425 29.1157 30.8004 28.473Z" fill="white"/>
</g>
<defs>
<clipPath id="clip0_3480_20248">
<rect width="36" height="36" fill="white"/>
</clipPath>
</defs>
</svg>
